<svg width="85.000000" height="85.000000" viewBox="0 0 85 85" fill="none" xmlns="http://www.w3.org/2000/svg" xmlns:xlink="http://www.w3.org/1999/xlink">
	<desc>
			Created with Pixso.
	</desc>
	<defs>
		<filter id="filter_15_5486_dd" x="0.000000" y="0.000000" width="85.000000" height="85.000000" filterUnits="userSpaceOnUse" color-interpolation-filters="sRGB">
			<feFlood flood-opacity="0" result="BackgroundImageFix"/>
			<feColorMatrix in="SourceAlpha" type="matrix" values="0 0 0 0 0 0 0 0 0 0 0 0 0 0 0 0 0 0 127 0" result="hardAlpha"/>
			<feOffset dx="0" dy="10"/>
			<feGaussianBlur stdDeviation="6.66667"/>
			<feComposite in2="hardAlpha" operator="out" k2="-1" k3="1"/>
			<feColorMatrix type="matrix" values="0 0 0 0 0.27451 0 0 0 0 0.63922 0 0 0 0 0.3451 0 0 0 0.3 0"/>
			<feBlend mode="normal" in2="BackgroundImageFix" result="effect_dropShadow_1"/>
			<feBlend mode="normal" in="SourceGraphic" in2="effect_dropShadow_1" result="shape"/>
		</filter>
		<linearGradient x1="11.000004" y1="-3.000008" x2="64.999985" y2="55.000000" id="paint_linear_15_5486_0" gradientUnits="userSpaceOnUse">
			<stop stop-color="#46A358" stop-opacity="0.450980"/>
			<stop offset="1.000000" stop-color="#46A358"/>
		</linearGradient>
	</defs>
	<g filter="url(#filter_15_5486_dd)">
		<rect id="Rectangle 97" x="20.000000" y="10.000000" rx="14.000000" width="45.000000" height="45.000000" fill="url(#paint_linear_15_5486_0)" fill-opacity="1.000000"/>
	</g>
	<rect id="Iconly/Curved/Filter" width="22.000000" height="22.000000" transform="translate(32.000000 21.000000)" fill="#FFFFFF" fill-opacity="0"/>
	<path id="Stroke 1" d="M42.21 37.39L36.28 37.39" stroke="#FFFFFF" stroke-opacity="1.000000" stroke-width="1.500000" stroke-linejoin="round" stroke-linecap="round"/>
	<path id="Stroke 3" d="M48.43 39.88C50.3 39.88 50.92 39.26 50.92 37.39C50.92 35.52 50.3 34.89 48.43 34.89C46.56 34.89 45.93 35.52 45.93 37.39C45.93 39.26 46.56 39.88 48.43 39.88Z" stroke="#FFFFFF" stroke-opacity="1.000000" stroke-width="1.500000" stroke-linejoin="round"/>
	<path id="Stroke 5" d="M44.99 27.77L50.92 27.77" stroke="#FFFFFF" stroke-opacity="1.000000" stroke-width="1.500000" stroke-linejoin="round" stroke-linecap="round"/>
	<path id="Stroke 7" d="M38.77 25.28C36.9 25.28 36.28 25.9 36.28 27.77C36.28 29.64 36.9 30.27 38.77 30.27C40.64 30.27 41.27 29.64 41.27 27.77C41.27 25.9 40.64 25.28 38.77 25.28Z" stroke="#FFFFFF" stroke-opacity="1.000000" stroke-width="1.500000" stroke-linejoin="round"/>
</svg>
