<svg width="28.000000" height="28.000000" viewBox="0 0 28 28" fill="none" xmlns="http://www.w3.org/2000/svg" xmlns:xlink="http://www.w3.org/1999/xlink">
	<desc>
			Created with Pixso.
	</desc>
	<defs/>
	<circle id="Ellipse 38" cx="14.000000" cy="14.000000" r="14.000000" fill="#FFFFFF" fill-opacity="1.000000"/>
	<path id="Vector" d="M13.5 21.34C13.28 21.34 13.08 21.26 12.91 21.12C12.31 20.59 11.72 20.09 11.21 19.66L11.21 19.65C9.7 18.37 8.39 17.25 7.48 16.16C6.47 14.93 6 13.77 6 12.5C6 11.27 6.42 10.13 7.19 9.3C7.96 8.46 9.03 8 10.19 8C11.05 8 11.84 8.27 12.54 8.81C12.89 9.08 13.21 9.41 13.5 9.8C13.78 9.41 14.1 9.08 14.45 8.81C15.15 8.27 15.94 8 16.8 8C17.96 8 19.03 8.46 19.81 9.3C20.57 10.13 21 11.27 21 12.5C21 13.77 20.52 14.93 19.51 16.16C18.6 17.25 17.29 18.37 15.78 19.65C15.27 20.09 14.68 20.59 14.08 21.12C13.91 21.26 13.71 21.34 13.5 21.34ZM10.19 8.87C9.28 8.87 8.44 9.24 7.83 9.9C7.21 10.57 6.87 11.49 6.87 12.5C6.87 13.57 7.27 14.52 8.16 15.6C9.02 16.63 10.3 17.72 11.78 18.98L11.78 18.99C12.3 19.43 12.88 19.93 13.49 20.46C14.11 19.93 14.7 19.43 15.21 18.98C16.69 17.72 17.97 16.63 18.83 15.6C19.72 14.52 20.12 13.57 20.12 12.5C20.12 11.49 19.78 10.57 19.16 9.9C18.55 9.24 17.71 8.87 16.8 8.87C16.14 8.87 15.53 9.09 14.99 9.5C14.5 9.88 14.17 10.35 13.97 10.68C13.87 10.85 13.69 10.95 13.5 10.95C13.3 10.95 13.12 10.85 13.02 10.68C12.82 10.35 12.49 9.88 12 9.5C11.46 9.09 10.85 8.87 10.19 8.87Z" fill="#46A358" fill-opacity="1.000000" fill-rule="nonzero"/>
</svg>
