<svg width="35.000000" height="35.000000" viewBox="0 0 35 35" fill="none" xmlns="http://www.w3.org/2000/svg" xmlns:xlink="http://www.w3.org/1999/xlink">
	<desc>
			Created with Pixso.
	</desc>
	<defs>
		<clipPath id="clip4_209">
			<rect id="heart 1" width="20.000038" height="20.000000" transform="translate(7.000000 8.000000)" fill="white" fill-opacity="0"/>
		</clipPath>
	</defs>
	<rect id="Rectangle 12" rx="4.000000" width="35.000000" height="35.000000" fill="#FFFFFF" fill-opacity="1.000000"/>
	<rect id="heart 1" width="20.000038" height="20.000000" transform="translate(7.000000 8.000000)" fill="#FFFFFF" fill-opacity="0"/>
	<g clip-path="url(#clip4_209)">
		<path id="Vector" d="M17 26.88C16.71 26.88 16.44 26.78 16.22 26.59C15.41 25.89 14.63 25.22 13.95 24.64L13.94 24.63C11.93 22.92 10.19 21.43 8.98 19.97C7.63 18.34 7 16.79 7 15.1C7 13.46 7.56 11.94 8.58 10.83C9.62 9.71 11.04 9.09 12.58 9.09C13.74 9.09 14.79 9.45 15.72 10.17C16.19 10.54 16.62 10.98 17 11.5C17.37 10.98 17.8 10.54 18.27 10.17C19.2 9.45 20.25 9.09 21.41 9.09C22.95 9.09 24.37 9.71 25.41 10.83C26.43 11.94 27 13.46 27 15.1C27 16.79 26.36 18.34 25.01 19.97C23.8 21.43 22.06 22.92 20.05 24.63C19.36 25.22 18.58 25.88 17.77 26.59C17.55 26.78 17.28 26.88 17 26.88ZM12.58 10.26C11.37 10.26 10.25 10.74 9.44 11.62C8.62 12.52 8.17 13.75 8.17 15.1C8.17 16.52 8.7 17.79 9.88 19.22C11.03 20.61 12.73 22.06 14.7 23.74L14.71 23.74C15.4 24.33 16.18 25 16.99 25.71C17.81 25 18.6 24.33 19.29 23.74C21.26 22.06 22.96 20.61 24.11 19.22C25.29 17.79 25.82 16.52 25.82 15.1C25.82 13.75 25.37 12.52 24.55 11.62C23.74 10.74 22.62 10.26 21.41 10.26C20.52 10.26 19.7 10.54 18.98 11.1C18.34 11.6 17.89 12.23 17.63 12.66C17.5 12.89 17.26 13.03 17 13.03C16.73 13.03 16.49 12.89 16.36 12.66C16.1 12.23 15.65 11.6 15.01 11.1C14.29 10.54 13.47 10.26 12.58 10.26Z" fill="#3D3D3D" fill-opacity="1.000000" fill-rule="nonzero"/>
	</g>
</svg>
