<svg width="22.000000" height="22.000000" viewBox="0 0 22 22" fill="none" xmlns="http://www.w3.org/2000/svg" xmlns:xlink="http://www.w3.org/1999/xlink">
	<desc>
			Created with Pixso.
	</desc>
	<defs>
		<clipPath id="clip15_5331">
			<rect id="Search" width="22.000000" height="22.000000" fill="white" fill-opacity="0"/>
		</clipPath>
	</defs>
	<g clip-path="url(#clip15_5331)">
		<path id="Ellipse 2 (Stroke)" d="M10.52 3.24C6.5 3.24 3.24 6.5 3.24 10.52C3.24 14.53 6.5 17.79 10.52 17.79C12.53 17.79 14.35 16.98 15.67 15.67C16.99 14.35 17.81 12.53 17.81 10.52C17.81 6.5 14.55 3.24 10.52 3.24ZM1.83 10.52C1.83 5.72 5.72 1.83 10.52 1.83C15.33 1.83 19.22 5.72 19.22 10.52C19.22 12.67 18.44 14.63 17.14 16.15L19.95 18.96C20.23 19.23 20.23 19.68 19.95 19.95C19.68 20.23 19.23 20.23 18.96 19.96L16.14 17.15C14.63 18.43 12.67 19.2 10.52 19.2C5.72 19.2 1.83 15.31 1.83 10.52Z" fill="#A5A5A5" fill-opacity="1.000000" fill-rule="evenodd"/>
	</g>
</svg>
