<svg width="35.000000" height="35.000000" viewBox="0 0 35 35" fill="none" xmlns="http://www.w3.org/2000/svg" xmlns:xlink="http://www.w3.org/1999/xlink">
	<desc>
			Created with Pixso.
	</desc>
	<defs/>
	<rect id="Rectangle 13" rx="4.000000" width="35.000000" height="35.000000" fill="#FFFFFF" fill-opacity="1.000000"/>
	<path id="Vector" d="M23.56 23C19.57 26.18 13.98 25.3 11.02 21.65C8.17 18.12 8.35 13.04 11.44 9.82C14.64 6.49 19.68 6.05 23.32 8.78C24.63 9.76 25.61 11 26.24 12.5C26.88 14.02 27.07 15.59 26.85 17.22C26.63 18.83 25.99 20.27 24.94 21.62C25.02 21.67 25.11 21.71 25.18 21.78C26.33 22.93 27.48 24.08 28.63 25.23C28.91 25.5 29.04 25.82 28.96 26.2C28.8 26.96 27.9 27.25 27.32 26.73C27.04 26.49 26.79 26.22 26.54 25.96C25.59 25.01 24.64 24.06 23.69 23.12C23.65 23.08 23.61 23.04 23.56 23ZM24.95 15.98C24.96 12.12 21.84 9 17.97 9C14.12 8.99 11 12.09 10.98 15.94C10.97 19.81 14.08 22.94 17.96 22.96C21.8 22.98 24.94 19.84 24.95 15.98Z" fill="#3D3D3D" fill-opacity="1.000000" fill-rule="nonzero"/>
</svg>
