<svg width="20.000000" height="20.000000" viewBox="0 0 20 20" fill="none" xmlns="http://www.w3.org/2000/svg" xmlns:xlink="http://www.w3.org/1999/xlink">
	<desc>
			Created with Pixso.
	</desc>
	<defs>
		<clipPath id="clip15_5524">
			<rect id="Shop" width="20.000000" height="20.000000" fill="white" fill-opacity="0"/>
		</clipPath>
	</defs>
	<g clip-path="url(#clip15_5524)">
		<path id="Vector" d="M18.33 6.8L17.38 12.77C17.21 13.95 16.27 14.71 15.07 14.71L6.83 14.71C5.72 14.71 4.69 13.87 4.52 12.77L3.49 5.79L3.23 3.85C3.14 3.35 2.72 3.01 2.12 3.01L1.51 3.01C1.17 3.01 0.83 2.67 0.83 2.34C0.83 2 1.17 1.66 1.51 1.66L2.12 1.66C3.32 1.66 4.35 2.5 4.43 3.68L4.6 5.03L16.78 5.03C17.21 5.03 17.64 5.2 17.9 5.53C18.24 5.87 18.33 6.38 18.33 6.8ZM7.52 17.49C7.52 17.95 7.13 18.33 6.66 18.33C6.19 18.33 5.8 17.95 5.8 17.49C5.8 17.02 6.19 16.64 6.66 16.64C7.13 16.64 7.52 17.02 7.52 17.49ZM15.24 18.33C15.71 18.33 16.1 17.95 16.1 17.49C16.1 17.02 15.71 16.64 15.24 16.64C14.77 16.64 14.38 17.02 14.38 17.49C14.38 17.95 14.77 18.33 15.24 18.33Z" fill="#D9D9D9" fill-opacity="1.000000" fill-rule="evenodd"/>
	</g>
</svg>
