<svg width="20.000000" height="20.000000" viewBox="0 0 20 20" fill="none" xmlns="http://www.w3.org/2000/svg" xmlns:xlink="http://www.w3.org/1999/xlink">
	<desc>
			Created with Pixso.
	</desc>
	<defs/>
	<rect id="Iconly/Bold/Home" width="20.000000" height="20.000000" fill="#FFFFFF" fill-opacity="0"/>
	<path id="Home" d="M7.61 17.31L7.61 14.76C7.61 14.11 8.14 13.58 8.79 13.58L11.19 13.58C11.5 13.58 11.8 13.7 12.03 13.93C12.25 14.15 12.37 14.45 12.37 14.76L12.37 17.31C12.37 17.58 12.48 17.84 12.67 18.03C12.86 18.22 13.12 18.33 13.4 18.33L15.03 18.33C15.79 18.33 16.53 18.03 17.07 17.5C17.61 16.96 17.91 16.23 17.91 15.48L17.91 8.22C17.91 7.61 17.64 7.02 17.16 6.63L11.61 2.22C10.64 1.45 9.25 1.48 8.32 2.28L2.88 6.63C2.39 7.01 2.09 7.6 2.08 8.22L2.08 15.47C2.08 17.05 3.37 18.33 4.96 18.33L6.55 18.33C7.12 18.33 7.58 17.88 7.58 17.31L7.61 17.31Z" fill="#46A358" fill-opacity="1.000000" fill-rule="nonzero"/>
</svg>
