<svg width="20.000000" height="17.793579" viewBox="0 0 20 17.7936" fill="none" xmlns="http://www.w3.org/2000/svg" xmlns:xlink="http://www.w3.org/1999/xlink">
	<desc>
			Created with Pixso.
	</desc>
	<defs/>
	<path id="Vector" d="M18.41 1.74C17.37 0.61 15.95 0 14.41 0C13.25 0 12.2 0.36 11.27 1.08C10.8 1.44 10.37 1.89 10 2.41C9.62 1.89 9.19 1.44 8.72 1.08C7.79 0.36 6.74 0 5.58 0C4.04 0 2.62 0.61 1.58 1.74C0.56 2.85 0 4.36 0 6.01C0 7.7 0.62 9.25 1.98 10.88C3.19 12.34 4.93 13.82 6.94 15.54C7.63 16.13 8.41 16.79 9.22 17.5C9.44 17.69 9.71 17.79 10 17.79C10.28 17.79 10.55 17.69 10.77 17.5C11.58 16.79 12.36 16.13 13.05 15.54C15.06 13.82 16.8 12.34 18.01 10.88C19.37 9.25 20 7.7 20 6.01C20 4.36 19.43 2.85 18.41 1.74Z" fill="#D9D9D9" fill-opacity="1.000000" fill-rule="nonzero"/>
</svg>
