<svg width="20.000000" height="20.000000" viewBox="0 0 20 20" fill="none" xmlns="http://www.w3.org/2000/svg" xmlns:xlink="http://www.w3.org/1999/xlink">
	<desc>
			Created with Pixso.
	</desc>
	<defs>
		<clipPath id="clip15_5522">
			<rect id="User" width="20.000000" height="20.000000" fill="white" fill-opacity="0"/>
		</clipPath>
	</defs>
	<g clip-path="url(#clip15_5522)">
		<path id="Vector" d="M14.1 5.74C14.1 8 12.26 9.82 10 9.82C7.73 9.82 5.89 8 5.89 5.74C5.89 3.49 7.73 1.66 10 1.66C12.26 1.66 14.1 3.49 14.1 5.74ZM7.86 11.53L12.13 11.53C14.61 11.53 16.66 13.48 16.66 16.03C16.66 16.63 16.32 17.14 15.89 17.39C15.12 17.82 13.41 18.33 10 18.33C6.58 18.33 4.87 17.82 4.1 17.39C3.58 17.14 3.33 16.63 3.33 16.03C3.33 13.57 5.38 11.53 7.86 11.53Z" fill="#D9D9D9" fill-opacity="1.000000" fill-rule="evenodd"/>
	</g>
</svg>
