<svg width="32.000000" height="32.000000" viewBox="0 0 32 32" fill="none" xmlns="http://www.w3.org/2000/svg" xmlns:xlink="http://www.w3.org/1999/xlink">
	<desc>
			Created with Pixso.
	</desc>
	<defs/>
	<rect id="Rectangle 42" x="0.500000" y="0.500000" rx="4.000000" width="31.000000" height="31.000000" stroke="#46A358" stroke-opacity="0.200000" stroke-width="1.000000"/>
	<path id="Instagram" d="M16 9.46C18.13 9.46 18.4 9.46 19.26 9.53C21.46 9.6 22.46 10.66 22.53 12.8C22.6 13.66 22.6 13.86 22.6 16C22.6 18.13 22.6 18.39 22.53 19.2C22.46 21.33 21.4 22.39 19.26 22.46C18.4 22.53 18.2 22.53 16 22.53C13.86 22.53 13.6 22.53 12.8 22.46C10.6 22.39 9.6 21.33 9.53 19.2C9.46 18.33 9.46 18.13 9.46 16C9.46 13.86 9.46 13.6 9.53 12.8C9.6 10.66 10.66 9.6 12.8 9.53C13.6 9.46 13.86 9.46 16 9.46ZM16 8C13.8 8 13.53 8 12.73 8.06C9.79 8.19 8.2 9.8 8.06 12.73C8 13.53 8 13.8 8 16C8 18.2 8 18.46 8.06 19.26C8.2 22.2 9.79 23.8 12.73 23.93C13.53 24 13.8 24 16 24C18.2 24 18.46 24 19.26 23.93C22.2 23.8 23.8 22.2 23.93 19.26C24 18.46 24 18.2 24 16C24 13.8 24 13.53 23.93 12.73C23.8 9.8 22.2 8.19 19.26 8.06C18.46 8 18.2 8 16 8ZM16 11.86C13.73 11.86 11.86 13.73 11.86 16C11.86 18.26 13.73 20.13 16 20.13C18.26 20.13 20.13 18.26 20.13 16C20.13 13.73 18.26 11.86 16 11.86ZM16 18.66C14.53 18.66 13.33 17.46 13.33 16C13.33 14.53 14.53 13.33 16 13.33C17.46 13.33 18.66 14.53 18.66 16C18.66 17.46 17.46 18.66 16 18.66ZM20.26 10.8C19.73 10.8 19.33 11.2 19.33 11.73C19.33 12.26 19.73 12.66 20.26 12.66C20.8 12.66 21.2 12.26 21.2 11.73C21.2 11.2 20.8 10.8 20.26 10.8Z" fill="#46A358" fill-opacity="0.600000" fill-rule="nonzero"/>
</svg>

