<svg width="32.000000" height="32.000000" viewBox="0 0 32 32" fill="none" xmlns="http://www.w3.org/2000/svg" xmlns:xlink="http://www.w3.org/1999/xlink">
	<desc>
			Created with Pixso.
	</desc>
	<defs/>
	<rect id="Rectangle 44" x="0.500000" y="0.500000" rx="4.000000" width="31.000000" height="31.000000" stroke="#46A358" stroke-opacity="0.200000" stroke-width="1.000000"/>
	<path id="Linkedin" d="M11.33 9.66C11.33 10.6 10.6 11.33 9.66 11.33C8.73 11.33 8 10.6 8 9.66C8 8.73 8.73 8 9.66 8C10.6 8 11.33 8.73 11.33 9.66ZM11.33 12.66L8 12.66L8 23.33L11.33 23.33L11.33 12.66ZM16.66 12.66L13.33 12.66L13.33 23.33L16.66 23.33L16.66 17.73C16.66 14.6 20.66 14.33 20.66 17.73L20.66 23.33L24 23.33L24 16.6C24 11.33 18.06 11.53 16.66 14.13L16.66 12.66Z" fill="#46A358" fill-opacity="0.600000" fill-rule="nonzero"/>
</svg>
