<svg width="32.000000" height="32.000000" viewBox="0 0 32 32" fill="none" xmlns="http://www.w3.org/2000/svg" xmlns:xlink="http://www.w3.org/1999/xlink">
	<desc>
			Created with Pixso.
	</desc>
	<defs/>
	<rect id="Rectangle 43" x="0.500000" y="0.500000" rx="4.000000" width="31.000000" height="31.000000" stroke="#46A358" stroke-opacity="0.200000" stroke-width="1.000000"/>
	<path id="Twitter" d="M13.03 22C19.06 22 22.37 17 22.37 12.66C22.37 12.52 22.36 12.38 22.36 12.23C23 11.77 23.56 11.19 24 10.53C23.41 10.8 22.77 10.97 22.11 11.05C22.79 10.64 23.31 10 23.55 9.24C22.92 9.61 22.22 9.88 21.47 10.03C20.87 9.39 20.02 9 19.07 9C17.26 9 15.79 10.47 15.79 12.28C15.79 12.54 15.82 12.79 15.87 13.03C13.15 12.89 10.73 11.58 9.11 9.6C8.83 10.08 8.66 10.64 8.66 11.25C8.66 12.38 9.24 13.39 10.12 13.98C9.59 13.96 9.08 13.81 8.64 13.57C8.64 13.58 8.64 13.6 8.64 13.61C8.64 15.2 9.77 16.53 11.27 16.83C11 16.9 10.71 16.94 10.41 16.94C10.19 16.94 9.99 16.92 9.79 16.88C10.21 18.19 11.42 19.14 12.86 19.16C11.73 20.04 10.32 20.57 8.78 20.57C8.51 20.57 8.25 20.55 8 20.52C9.45 21.46 11.17 22 13.03 22Z" fill="#46A358" fill-opacity="0.600000" fill-rule="nonzero"/>
</svg>
