<svg width="35.000000" height="35.000000" viewBox="0 0 35 35" fill="none" xmlns="http://www.w3.org/2000/svg" xmlns:xlink="http://www.w3.org/1999/xlink">
	<desc>
			Created with Pixso.
	</desc>
	<defs/>
	<path id="Rectangle 11" d="M4 0L31 0C33.2 0 35 1.79 35 4L35 31C35 33.2 33.2 35 31 35L4 35C1.79 35 0 33.2 0 31L0 4C0 1.79 1.79 0 4 0Z" fill="#FFFFFF" fill-opacity="1.000000" fill-rule="evenodd"/>
	<path id="Vector" d="M20.29 24.87L14.24 24.87C11.65 24.87 9.55 22.77 9.55 20.18L9.55 15.38C9.55 12.98 8.35 10.75 6.35 9.43C5.99 9.19 5.89 8.71 6.12 8.35C6.36 7.99 6.85 7.89 7.21 8.13C8.35 8.88 9.28 9.88 9.94 11.02C10.09 11.18 11.24 12.41 13.14 12.41L22.14 12.41C24.59 12.36 26.51 14.83 25.87 17.2L24.83 21.32C24.31 23.41 22.44 24.87 20.29 24.87ZM10.91 13.53C11.04 14.13 11.11 14.75 11.11 15.38L11.11 20.18C11.11 21.91 12.51 23.31 14.24 23.31L20.29 23.31C21.72 23.31 22.97 22.34 23.32 20.94L24.35 16.82C24.74 15.41 23.59 13.95 22.14 13.97L13.14 13.97C12.28 13.97 11.54 13.79 10.91 13.53ZM13.85 27.02C13.85 26.48 13.41 26.04 12.87 26.04C11.57 26.09 11.57 27.94 12.87 27.99C13.41 27.99 13.85 27.56 13.85 27.02ZM21.62 27.02C21.62 26.48 21.18 26.04 20.64 26.04C19.35 26.09 19.35 27.94 20.64 27.99C21.18 27.99 21.62 27.56 21.62 27.02ZM22.92 16.32C22.92 15.89 22.57 15.54 22.14 15.54L13.45 15.54C12.42 15.58 12.42 17.06 13.45 17.1L22.14 17.1C22.57 17.1 22.92 16.75 22.92 16.32Z" fill="#46A358" fill-opacity="1.000000" fill-rule="nonzero"/>
</svg>
