<svg width="105.000000" height="105.000000" viewBox="0 0 105 105" fill="none" xmlns="http://www.w3.org/2000/svg" xmlns:xlink="http://www.w3.org/1999/xlink">
	<desc>
			Created with Pixso.
	</desc>
	<defs>
		<filter id="filter_28_300_dd" x="0.000000" y="0.000000" width="105.000000" height="105.000000" filterUnits="userSpaceOnUse" color-interpolation-filters="sRGB">
			<feFlood flood-opacity="0" result="BackgroundImageFix"/>
			<feColorMatrix in="SourceAlpha" type="matrix" values="0 0 0 0 0 0 0 0 0 0 0 0 0 0 0 0 0 0 127 0" result="hardAlpha"/>
			<feOffset dx="0" dy="10"/>
			<feGaussianBlur stdDeviation="6.66667"/>
			<feComposite in2="hardAlpha" operator="out" k2="-1" k3="1"/>
			<feColorMatrix type="matrix" values="0 0 0 0 0.82745 0 0 0 0 0.82745 0 0 0 0 0.82745 0 0 0 1 0"/>
			<feBlend mode="normal" in2="BackgroundImageFix" result="effect_dropShadow_1"/>
			<feBlend mode="normal" in="SourceGraphic" in2="effect_dropShadow_1" result="shape"/>
		</filter>
		<linearGradient x1="53.000000" y1="-0.999995" x2="53.000000" y2="80.999992" id="paint_linear_28_300_0" gradientUnits="userSpaceOnUse">
			<stop stop-color="#46A358" stop-opacity="0.400000"/>
			<stop offset="1.000000" stop-color="#46A358"/>
		</linearGradient>
		<filter id="filter_28_305_dd" x="0.000000" y="0.000000" width="105.000000" height="105.000000" filterUnits="userSpaceOnUse" color-interpolation-filters="sRGB">
			<feFlood flood-opacity="0" result="BackgroundImageFix"/>
			<feColorMatrix in="SourceAlpha" type="matrix" values="0 0 0 0 0 0 0 0 0 0 0 0 0 0 0 0 0 0 127 0" result="hardAlpha"/>
			<feOffset dx="0" dy="10"/>
			<feGaussianBlur stdDeviation="6.66667"/>
			<feComposite in2="hardAlpha" operator="out" k2="-1" k3="1"/>
			<feColorMatrix type="matrix" values="0 0 0 0 0.82745 0 0 0 0 0.82745 0 0 0 0 0.82745 0 0 0 1 0"/>
			<feBlend mode="normal" in2="BackgroundImageFix" result="effect_dropShadow_1"/>
			<feBlend mode="normal" in="SourceGraphic" in2="effect_dropShadow_1" result="shape"/>
		</filter>
		<linearGradient x1="53.000000" y1="-0.999995" x2="53.000000" y2="80.999992" id="paint_linear_28_305_0" gradientUnits="userSpaceOnUse">
			<stop stop-color="#46A358" stop-opacity="0.400000"/>
			<stop offset="1.000000" stop-color="#46A358"/>
		</linearGradient>
	</defs>
	<g filter="url(#filter_28_300_dd)">
		<circle id="Ellipse 39" cx="52.500000" cy="42.500000" r="32.500000" fill="url(#paint_linear_28_300_0)" fill-opacity="1.000000"/>
	</g>
	<g filter="url(#filter_28_305_dd)">
		<circle id="Ellipse 39" cx="52.500000" cy="42.500000" r="32.500000" fill="url(#paint_linear_28_305_0)" fill-opacity="1.000000"/>
	</g>
	<path id="Vector" d="M52.38 35.78C48.28 35.78 44.18 35.78 40.09 35.78C39.96 35.78 39.82 35.78 39.7 35.76C39.25 35.66 38.95 35.23 39 34.78C39.06 34.34 39.43 34 39.91 34C40.98 33.99 42.05 34 43.12 34C50.32 34 57.52 34 64.71 34C64.85 34 65 33.99 65.13 34.03C65.57 34.13 65.86 34.54 65.81 34.98C65.77 35.43 65.39 35.78 64.92 35.78C63.71 35.79 62.5 35.78 61.29 35.78C58.32 35.78 55.35 35.78 52.38 35.78C52.38 35.78 52.38 35.78 52.38 35.78Z" fill="#FFFFFF" fill-opacity="1.000000" fill-rule="nonzero"/>
	<path id="Vector" d="M52.38 43.78C48.28 43.78 44.18 43.78 40.09 43.78C39.96 43.78 39.82 43.78 39.7 43.76C39.25 43.66 38.95 43.23 39 42.78C39.06 42.34 39.43 42 39.91 42C40.98 41.99 42.05 42 43.12 42C50.32 42 57.52 42 64.71 42C64.85 42 65 41.99 65.13 42.03C65.57 42.13 65.86 42.54 65.81 42.98C65.77 43.43 65.39 43.78 64.92 43.78C63.71 43.79 62.5 43.78 61.29 43.78C58.32 43.78 55.35 43.78 52.38 43.78C52.38 43.78 52.38 43.78 52.38 43.78Z" fill="#FFFFFF" fill-opacity="1.000000" fill-rule="nonzero"/>
	<path id="Vector" d="M52.38 51.78C48.28 51.78 44.18 51.78 40.09 51.78C39.96 51.78 39.82 51.78 39.7 51.76C39.25 51.66 38.95 51.23 39 50.78C39.06 50.34 39.43 50 39.91 50C40.98 49.99 42.05 50 43.12 50C50.32 50 57.52 50 64.71 50C64.85 50 65 49.99 65.13 50.03C65.57 50.13 65.86 50.54 65.81 50.98C65.77 51.43 65.39 51.78 64.92 51.78C63.71 51.79 62.5 51.78 61.29 51.78C58.32 51.78 55.35 51.78 52.38 51.78C52.38 51.78 52.38 51.78 52.38 51.78Z" fill="#FFFFFF" fill-opacity="1.000000" fill-rule="nonzero"/>
</svg>

